:SAMPLES-PER-SECOND 30
:FULLY-SPECIFIED
:DEGREES
695
root  -7.32063 39.9893 10.6953 177.954 -25.6279 175.35
RightUpLeg  -3.59584 17.9771 -19.452
RightLeg  34.3979 -11.9415 -8.89852
RightFoot  19.3127 0.0575461 0.284602
RightToes  -1.33073e-015 0 -3.6325e-017
Spine  -9.17931 2.96129 8.94457
Spine1  16.0392 2.50852 -3.6798
HEad  3.15549 -23.8856 -2.85017
LeftShoulder1  8.29809 -16.8037 -34.8035
LeftArm  29.03 0.628208 -51.113
LeftForeArm  -38.229 -42.2536 -12.146
LeftHand  -0.246645 0.021 5.37786
RightShoulder  6.83124 14.8379 31.2749
RightArm  44.6287 23.7974 66.8534
RightForeArm  4.65355 31.3214 6.61731
RightHand  -0.24729 -0.0210522 -5.37781
LeftUpLeg  2.32576 5.68131 -2.78667
LeftLeg  6.95139 1.01802 -4.3695
LeftFoot  -4.38906 -0.109817 2.24355
LeftToes  5.09284e-011 3.02203e-011 3.83118e-011
696
root  -7.29671 39.9721 10.8407 177.592 -23.071 175.342
RightUpLeg  -3.85104 16.7409 -19.9535
RightLeg  33.3155 -12.8853 -9.19706
RightFoot  17.6757 -0.003372 0.488793
RightToes  -1.33073e-015 0 -3.6325e-017
Spine  -7.94147 3.01601 8.41095
Spine1  15.4149 2.72008 -3.67246
HEad  2.9161 -22.9397 -2.63975
LeftShoulder1  8.22847 -16.7529 -34.5663
LeftArm  33.1653 -0.164968 -51.7028
LeftForeArm  -40.128 -39.1918 -11.0599
LeftHand  -0.246645 0.021 5.37786
RightShoulder  6.90853 14.9154 31.5395
RightArm  44.2629 23.1191 66.0249
RightForeArm  -1.72501 28.5768 6.28186
RightHand  -0.24729 -0.0210522 -5.37781
LeftUpLeg  2.50582 5.81054 -2.85334
LeftLeg  6.98262 3.26103 -4.21138
LeftFoot  -4.68904 -0.0924349 2.0771
LeftToes  5.09284e-011 3.02203e-011 3.83118e-011
697
root  -7.27625 39.9548 11.0003 177.094 -20.7014 175.459
RightUpLeg  -4.02282 15.5474 -20.2706
RightLeg  32.1952 -13.3838 -9.15247
RightFoot  16.3598 -0.0211602 0.54679
RightToes  -1.33073e-015 0 -3.6325e-017
Spine  -6.54909 2.96583 7.9347
Spine1  14.8013 2.77127 -3.54027
HEad  2.45065 -21.9334 -2.48929
LeftShoulder1  8.2088 -16.7561 -34.4641
LeftArm  35.5105 -1.21993 -52.531
LeftForeArm  -51.7387 -40.9046 -12.0115
LeftHand  -0.246645 0.021 5.37786
RightShoulder  6.93204 14.9608 31.5742
RightArm  44.3141 22.4546 65.3169
RightForeArm  -6.96876 25.8819 5.89226
RightHand  -0.24729 -0.0210522 -5.37781
LeftUpLeg  2.6111 5.9579 -2.81011
LeftLeg  7.31608 5.38384 -3.96895
LeftFoot  -5.04229 -0.075404 1.92398
LeftToes  5.09284e-011 3.02203e-011 3.83118e-011
698
root  -7.252 39.9349 11.1548 176.513 -18.4973 175.649
RightUpLeg  -4.09803 14.5257 -20.4156
RightLeg  31.1101 -13.64 -8.95327
RightFoot  15.3816 -0.0641892 0.721225
RightToes  -1.33073e-015 0 -3.6325e-017
Spine  -5.12221 2.79996 7.4664
Spine1  14.2696 2.67951 -3.3862
HEad  1.80595 -20.9309 -2.23306
LeftShoulder1  8.18226 -16.788 -34.2712
LeftArm  34.9959 -2.50416 -53.7564
LeftForeArm  -77.1275 -48.3181 -15.2529
LeftHand  -0.246645 0.021 5.37786
RightShoulder  6.96035 15.0119 31.623
RightArm  44.7724 21.7924 64.5959
RightForeArm  -11.1054 23.6167 5.70531
RightHand  -0.24729 -0.0210522 -5.37781
LeftUpLeg  2.71886 6.12603 -2.68218
LeftLeg  7.80132 7.41929 -3.62914
LeftFoot  -5.40702 -0.055514 1.69009
LeftToes  5.09284e-011 3.02203e-011 3.83118e-011
699
root  -7.21188 39.9139 11.3028 175.964 -16.4954 175.798
RightUpLeg  -4.13358 13.704 -20.5322
RightLeg  30.0911 -13.6161 -8.60602
RightFoot  14.452 -0.221111 1.40564
RightToes  -1.33073e-015 0 -3.6325e-017
Spine  -3.66559 2.47216 6.78862
Spine1  13.6994 2.40078 -3.19737
HEad  1.19609 -19.8156 -1.90552
LeftShoulder1  8.11357 -16.8026 -33.9073
LeftArm  34.5265 -3.72775 -54.888
LeftForeArm  -94.4903 -52.4183 -16.9285
LeftHand  -0.246645 0.021 5.37786
RightShoulder  7.01866 15.0881 31.7827
RightArm  43.6306 21.104 63.7068
RightForeArm  -12.4925 21.8201 6.29826
RightHand  -0.24729 -0.0210522 -5.37781
LeftUpLeg  2.81907 6.28669 -2.54607
LeftLeg  8.28113 9.2769 -3.27109
LeftFoot  -5.70338 -0.0372695 1.41976
LeftToes  5.09284e-011 3.02203e-011 3.83118e-011
700
root  -7.16494 39.9045 11.4439 175.571 -14.7492 175.874
RightUpLeg  -4.21288 12.9293 -20.697
RightLeg  29.0552 -13.2365 -8.0574
RightFoot  13.5197 -0.38038 2.14818
RightToes  -1.33073e-015 0 -3.6325e-017
Spine  -2.37862 1.97886 5.7724
Spine1  13.1588 1.8677 -2.75699
HEad  0.704263 -18.4362 -1.73589
LeftShoulder1  8.05742 -16.8003 -33.6374
LeftArm  37.4208 -4.46784 -55.3206
LeftForeArm  -87.9297 -47.3412 -14.6783
LeftHand  -0.246645 0.021 5.37786
RightShoulder  7.07975 15.1785 31.9269
RightArm  40.2824 20.41 62.6574
RightForeArm  -10.712 20.1817 7.42885
RightHand  -0.24729 -0.0210522 -5.37781
LeftUpLeg  2.88186 6.39231 -2.46183
LeftLeg  8.54583 10.8885 -2.97097
LeftFoot  -5.81773 -0.0267841 1.24221
LeftToes  5.09284e-011 3.02203e-011 3.83118e-011
701
root  -7.12419 39.9145 11.5651 175.349 -13.1354 175.953
RightUpLeg  -4.39783 12.2174 -20.8068
RightLeg  28.0308 -12.938 -7.57843
RightFoot  12.9877 -0.391392 2.23035
RightToes  -1.33073e-015 0 -3.6325e-017
Spine  -1.46573 1.41507 4.58723
Spine1  12.854 1.1583 -2.02278
HEad  0.202598 -16.7764 -1.76606
LeftShoulder1  8.05678 -16.7918 -33.6509
LeftArm  43.8834 -5.04893 -55.3993
LeftForeArm  -65.8546 -36.4393 -10.6232
LeftHand  -0.246645 0.021 5.37786
RightShoulder  7.11922 15.2591 31.9737
RightArm  36.1282 19.7535 61.5972
RightForeArm  -7.87323 18.6171 8.53295
RightHand  -0.24729 -0.0210522 -5.37781
LeftUpLeg  2.94277 6.45737 -2.38617
LeftLeg  8.49178 12.3713 -2.73445
LeftFoot  -5.7338 -0.0229393 1.14904
LeftToes  5.09284e-011 3.02203e-011 3.83118e-011
702
root  -7.06985 39.9264 11.6598 175.201 -11.4219 176.09
RightUpLeg  -4.68093 11.7474 -20.7625
RightLeg  27.1235 -13.0439 -7.36758
RightFoot  12.7292 -0.412682 2.33805
RightToes  -1.33073e-015 0 -3.6325e-017
Spine  -0.731705 0.902707 3.41648
Spine1  12.6681 0.463024 -1.26538
HEad  -0.36248 -14.8989 -1.76066
LeftShoulder1  8.07487 -16.7717 -33.7788
LeftArm  49.9775 -5.8835 -55.6724
LeftForeArm  -54.0035 -29.077 -8.35128
LeftHand  -0.246645 0.021 5.37786
RightShoulder  7.14753 15.3165 32.0078
RightArm  32.5666 19.0694 60.6372
RightForeArm  -6.58412 17.4097 9.39169
RightHand  -0.24729 -0.0210522 -5.37781
LeftUpLeg  2.98846 6.59457 -2.1903
LeftLeg  8.3857 13.8547 -2.52448
LeftFoot  -5.62352 -0.014132 0.965891
LeftToes  5.09284e-011 3.02203e-011 3.83118e-011
703
root  -6.97066 39.9151 11.7367 175.094 -9.61093 176.231
RightUpLeg  -4.93089 11.3285 -20.6182
RightLeg  26.1064 -12.3702 -6.72974
RightFoot  11.3474 -0.774748 4.27346
RightToes  -1.33073e-015 0 -3.6325e-017
Spine  0.089716 0.462276 2.19001
Spine1  12.3051 -0.146743 -0.703308
HEad  -0.872824 -12.8684 -1.57469
LeftShoulder1  8.07676 -16.7545 -33.822
LeftArm  51.697 -6.89975 -55.9111
LeftForeArm  -53.805 -27.404 -7.93914
LeftHand  -0.246645 0.021 5.37786
RightShoulder  7.18415 15.3563 32.1218
RightArm  30.0796 18.2193 59.7696
RightForeArm  -7.38392 16.7215 9.90875
RightHand  -0.24729 -0.0210522 -5.37781
LeftUpLeg  2.87755 6.87246 -1.83947
LeftLeg  8.61714 15.2504 -2.30756
LeftFoot  -5.67064 0.00501794 0.5872
LeftToes  5.09284e-011 3.02203e-011 3.83118e-011
704
root  -6.82617 39.88 11.7969 175.109 -7.93694 176.31
RightUpLeg  -4.97446 10.5876 -20.3349
RightLeg  24.5426 -8.66008 -4.52049
RightFoot  7.45966 -1.33896 8.46961
RightToes  -1.33073e-015 0 -3.6325e-017
Spine  0.819008 0.0241495 0.829963
Spine1  11.8569 -0.750306 -0.299132
HEad  -1.29153 -10.8027 -1.35784
LeftShoulder1  8.08095 -16.7591 -33.8333
LeftArm  52.4363 -7.94187 -55.9073
LeftForeArm  -53.4966 -26.4605 -7.66901
LeftHand  -0.246645 0.021 5.37786
RightShoulder  7.23048 15.3931 32.2931
RightArm  28.0562 17.2102 58.9528
RightForeArm  -8.70322 16.3726 10.1631
RightHand  -0.24729 -0.0210522 -5.37781
LeftUpLeg  2.5122 7.2252 -1.4335
LeftLeg  9.21824 16.3884 -2.06504
LeftFoot  -5.87109 0.0307561 0.0949617
LeftToes  5.09284e-011 3.02203e-011 3.83118e-011
705
root  -6.64495 39.8365 11.8288 175.245 -6.45251 176.368
RightUpLeg  -4.83689 9.83234 -19.5903
RightLeg  22.6468 -1.32806 -0.826827
RightFoot  1.77085 -1.49279 13.0384
RightToes  -1.33073e-015 0 -3.6325e-017
Spine  1.21334 -0.400071 -0.555404
Spine1  11.6274 -1.35637 0.090573
HEad  -1.72599 -8.8664 -1.29868
LeftShoulder1  8.09375 -16.7507 -33.9125
LeftArm  53.9003 -9.0475 -55.7345
LeftForeArm  -49.2992 -24.2309 -7.3605
LeftHand  -0.246645 0.021 5.37786
RightShoulder  7.2728 15.4316 32.4388
RightArm  26.754 16.1298 58.2634
RightForeArm  -10.419 16.4226 10.139
RightHand  -0.24729 -0.0210522 -5.37781
LeftUpLeg  1.98365 7.61328 -0.980281
LeftLeg  10.0113 17.2775 -1.78079
LeftFoot  -6.14823 0.0561473 -0.423695
LeftToes  5.09284e-011 3.02203e-011 3.83118e-011
